<?xml version="1.0" encoding="UTF-8"?>
<svg width="1440px" height="780px" viewBox="0 0 1440 780" version="1.1" xmlns="http://www.w3.org/2000/svg" xmlns:xlink="http://www.w3.org/1999/xlink">
    <!-- Generator: Sketch 51.3 (57544) - http://www.bohemiancoding.com/sketch -->
    <title>VAXT-twerk-08</title>
    <desc>Created with Sketch.</desc>
    <defs></defs>
    <g id="Page-1" stroke="none" stroke-width="1" fill="none" fill-rule="evenodd">
        <g id="Custom-Preset-5-Copy-2" stroke="#FFFFFF" stroke-width="0.25">
            <g id="VAXT-twerk-08">
                <path d="M362,302 L1111,302" id="Shape"></path>
                <path d="M362,325 L1111,325" id="Shape"></path>
                <path d="M362,348 L1111,348" id="Shape"></path>
                <path d="M362,371 L1111,371" id="Shape"></path>
                <path d="M362,394 L1111,394" id="Shape"></path>
                <path d="M362,417 L1111,417" id="Shape"></path>
                <path d="M362,440 L1111,440" id="Shape"></path>
                <path d="M362,463 L1111,463" id="Shape"></path>
                <path d="M362,486 L1111,486" id="Shape"></path>
                <path d="M362,509 L1111,509" id="Shape"></path>
                <path d="M362,532 L1111,532" id="Shape"></path>
                <path d="M362,555 L1111,555" id="Shape"></path>
                <path d="M362,578 L1111,578" id="Shape"></path>
                <path d="M362,601 L1111,601" id="Shape"></path>
                <path d="M0,260 L70,260" id="Shape"></path>
                <path d="M0,329 L70,329" id="Shape"></path>
                <path d="M0,194 L70,194" id="Shape"></path>
                <path d="M0,119 L70,119" id="Shape"></path>
                <path d="M0,64 L70,64" id="Shape"></path>
                <path d="M0,396 L70,396" id="Shape"></path>
                <path d="M0,463 L70,463" id="Shape"></path>
                <path d="M0,486 L70,486" id="Shape"></path>
                <path d="M0,583 L70,583" id="Shape"></path>
                <path d="M0,660 L70,660" id="Shape"></path>
                <path d="M0,730 L70,730" id="Shape"></path>
                <path d="M75,0 L360,302" id="Shape"></path>
                <path d="M75,65 L360,325" id="Shape"></path>
                <path d="M75,119 L360,348" id="Shape"></path>
                <path d="M75,194 L360,371" id="Shape"></path>
                <path d="M75,260 L360,394" id="Shape"></path>
                <path d="M75,329 L360,417" id="Shape"></path>
                <path d="M75,396 L360,440" id="Shape"></path>
                <path d="M75,463 L360,463" id="Shape"></path>
                <path d="M75,486 L360,486" id="Shape"></path>
                <path d="M75,583 L360,509" id="Shape"></path>
                <path d="M75,660 L360,532" id="Shape"></path>
                <path d="M75,730 L360,555" id="Shape"></path>
                <path d="M75,790 L360,578" id="Shape"></path>
                <path d="M75,867 L360,601" id="Shape"></path>
                <path d="M1461,0 L1114,302" id="Shape"></path>
                <path d="M1461,65 L1114,325" id="Shape"></path>
                <path d="M1461,119 L1114,348" id="Shape"></path>
                <path d="M1461,194 L1114,371" id="Shape"></path>
                <path d="M1461,260 L1114,394" id="Shape"></path>
                <path d="M1461,329 L1114,417" id="Shape"></path>
                <path d="M1461,396 L1114,440" id="Shape"></path>
                <path d="M1461,463 L1114,463" id="Shape"></path>
                <path d="M1461,486 L1114,486" id="Shape"></path>
                <path d="M1461,583 L1114,509" id="Shape"></path>
                <path d="M1461,660 L1114,532" id="Shape"></path>
                <path d="M1461,730 L1114,555" id="Shape"></path>
                <path d="M1461,790 L1114,578" id="Shape"></path>
                <path d="M1461,867 L1114,601" id="Shape"></path>
            </g>
        </g>
    </g>
</svg>